<svg fill="none" height="24" viewBox="0 0 24 24" width="24" xmlns="http://www.w3.org/2000/svg"><g fill="#f6c90c"><path clip-rule="evenodd" d="m5.625 1.5c-1.036 0-1.875.84-1.875 1.875v17.25c0 1.035.84 1.875 1.875 1.875h12.75c1.035 0 1.875-.84 1.875-1.875v-7.875c0-.9946-.3951-1.9484-1.0983-2.6517-.7033-.70321-1.6571-1.0983-2.6517-1.0983h-1.875c-.4973 0-.9742-.19754-1.3258-.54917-.3517-.35164-.5492-.82855-.5492-1.32583v-1.875c0-.99456-.3951-1.94839-1.0983-2.65165-.7033-.70326-1.65714-1.09835-2.6517-1.09835zm1.875 13.5c0-.1989.07902-.3897.21967-.5303.14065-.1407.33142-.2197.53033-.2197h7.5c.1989 0 .3897.079.5303.2197.1407.1406.2197.3314.2197.5303s-.079.3897-.2197.5303c-.1406.1407-.3314.2197-.5303.2197h-7.5c-.19891 0-.38968-.079-.53033-.2197-.14065-.1406-.21967-.3314-.21967-.5303zm.75 2.25c-.19891 0-.38968.079-.53033.2197-.14065.1406-.21967.3314-.21967.5303s.07902.3897.21967.5303c.14065.1407.33142.2197.53033.2197h3.75c.1989 0 .3897-.079.5303-.2197.1407-.1406.2197-.3314.2197-.5303s-.079-.3897-.2197-.5303c-.1406-.1407-.3314-.2197-.5303-.2197z" fill-rule="evenodd"/><path d="m12.9709 1.81592c.8266.95296 1.2808 2.17254 1.279 3.434v1.875c0 .207.168.375.375.375h1.875c1.2615-.00175 2.4811.45248 3.434 1.279-.4399-1.67329-1.3164-3.1997-2.5398-4.42312-1.2235-1.22341-2.7499-2.09992-4.4232-2.53988z"/></g></svg>