<svg fill="none" height="24" viewBox="0 0 24 24" width="24" xmlns="http://www.w3.org/2000/svg"><path d="m11.645 20.9101-.007-.003-.022-.012c-.1287-.0708-.2564-.1435-.383-.218-1.52219-.9045-2.94472-1.9671-4.244-3.17-2.301-2.147-4.739-5.333-4.739-9.25703 0-2.928 2.464-5.25 5.438-5.25.82675-.00405 1.64378.17834 2.3903.53361.7466.35526 1.4034.87426 1.9217 1.51839.5184-.64426 1.1754-1.16334 1.9221-1.51861.7468-.35527 1.564-.53759 2.3909-.53339 2.973 0 5.437 2.322 5.437 5.25 0 3.92503-2.438 7.11103-4.739 9.25603-1.2993 1.2029-2.7218 2.2655-4.244 3.17-.1266.0748-.2543.1478-.383.219l-.022.012-.007.004-.003.001c-.1084.0574-.2293.0874-.352.0874s-.2436-.03-.352-.0874l-.003-.001z" fill="#f6c90c"/></svg>