<svg fill="none" height="24" viewBox="0 0 24 24" width="24" xmlns="http://www.w3.org/2000/svg"><path clip-rule="evenodd" d="m2.25 6c0-.79565.31607-1.55871.87868-2.12132s1.32567-.87868 2.12132-.87868h13.5c.7956 0 1.5587.31607 2.1213.87868s.8787 1.32567.8787 2.12132v12c0 .7956-.3161 1.5587-.8787 2.1213s-1.3257.8787-2.1213.8787h-13.5c-.79565 0-1.55871-.3161-2.12132-.8787s-.87868-1.3257-.87868-2.1213zm3.97.97c.14063-.14045.33125-.21934.53-.21934s.38937.07889.53.21934l2.25 2.25c.14045.14063.21934.33125.21934.53s-.07889.3894-.21934.53l-2.25 2.25c-.14217.1325-.33022.2046-.52452.2012-.1943-.0035-.37969-.0822-.5171-.2196s-.21613-.3228-.21955-.5171c-.00343-.1943.06869-.3823.20117-.5245l1.72-1.72-1.72-1.72c-.14045-.14063-.21934-.33125-.21934-.53s.07889-.38937.21934-.53zm4.28 4.28c-.1989 0-.3897.079-.53033.2197-.14065.1406-.21967.3314-.21967.5303s.07902.3897.21967.5303c.14063.1407.33143.2197.53033.2197h3c.1989 0 .3897-.079.5303-.2197.1407-.1406.2197-.3314.2197-.5303s-.079-.3897-.2197-.5303c-.1406-.1407-.3314-.2197-.5303-.2197z" fill="#f6c90c" fill-rule="evenodd"/></svg>