<svg fill="none" height="24" viewBox="0 0 24 24" width="24" xmlns="http://www.w3.org/2000/svg"><g fill="#f6c90c"><path clip-rule="evenodd" d="m9 1.5h-3.375c-1.036 0-1.875.84-1.875 1.875v17.25c0 1.035.84 1.875 1.875 1.875h12.75c1.035 0 1.875-.84 1.875-1.875v-7.875c0-.9946-.3951-1.9484-1.0983-2.6517-.7033-.70321-1.6571-1.0983-2.6517-1.0983h-1.875c-.4973 0-.9742-.19754-1.3258-.54917-.3517-.35164-.5492-.82855-.5492-1.32583v-1.875c0-.99456-.3951-1.94839-1.0983-2.65165-.7033-.70326-1.65714-1.09835-2.6517-1.09835zm6.61 10.936c.06-.0799.1034-.1711.1277-.2681.0243-.0969.0289-.1978.0137-.2965-.0153-.0988-.0502-.1936-.1025-.2787-.0524-.0851-.1213-.1589-.2026-.217-.0814-.0582-.1735-.0995-.271-.1215s-.1984-.0243-.2968-.0067c-.0984.0175-.1923.0546-.2762.1089-.0839.0544-.1561.1249-.2123.2076l-3.236 4.53-1.624-1.624c-.14218-.1325-.33022-.2046-.52452-.2012-.1943.0035-.37969.0822-.5171.2196s-.21613.3228-.21956.5171c-.00342.1943.0687.3823.20118.5245l2.25 2.25c.077.0769.1698.1362.272.1736.1022.0375.2113.0523.3198.0433.1084-.0089.2137-.0414.3083-.095.0947-.0537.1766-.1274.2399-.2159z" fill-rule="evenodd"/><path d="m12.9709 1.81592c.8266.95296 1.2808 2.17254 1.279 3.434v1.875c0 .207.168.375.375.375h1.875c1.2615-.00175 2.4811.45248 3.434 1.279-.4399-1.67329-1.3164-3.1997-2.5398-4.42312-1.2235-1.22341-2.7499-2.09992-4.4232-2.53988z"/></g></svg>