<svg fill="none" height="24" viewBox="0 0 24 24" width="24" xmlns="http://www.w3.org/2000/svg"><path clip-rule="evenodd" d="m2.625 6.75c0-.29837.11853-.58452.3295-.7955.21098-.21097.49713-.3295.7955-.3295s.58452.11853.7955.3295c.21097.21098.3295.49713.3295.7955s-.11853.58452-.3295.7955c-.21098.21097-.49713.3295-.7955.3295s-.58452-.11853-.7955-.3295c-.21097-.21098-.3295-.49713-.3295-.7955zm4.875 0c0-.19891.07902-.38968.21967-.53033s.33142-.21967.53033-.21967h12c.1989 0 .3897.07902.5303.21967.1407.14065.2197.33142.2197.53033s-.079.38968-.2197.53033c-.1406.14065-.3314.21967-.5303.21967h-12c-.19891 0-.38968-.07902-.53033-.21967s-.21967-.33142-.21967-.53033zm-4.875 5.25c0-.2984.11853-.5845.3295-.7955.21098-.211.49713-.3295.7955-.3295s.58452.1185.7955.3295c.21097.211.3295.4971.3295.7955s-.11853.5845-.3295.7955c-.21098.211-.49713.3295-.7955.3295s-.58452-.1185-.7955-.3295c-.21097-.211-.3295-.4971-.3295-.7955zm4.875 0c0-.1989.07902-.3897.21967-.5303.14065-.1407.33142-.2197.53033-.2197h12c.1989 0 .3897.079.5303.2197.1407.1406.2197.3314.2197.5303s-.079.3897-.2197.5303c-.1406.1407-.3314.2197-.5303.2197h-12c-.19891 0-.38968-.079-.53033-.2197-.14065-.1406-.21967-.3314-.21967-.5303zm-4.875 5.25c0-.2984.11853-.5845.3295-.7955.21098-.211.49713-.3295.7955-.3295s.58452.1185.7955.3295c.21097.211.3295.4971.3295.7955s-.11853.5845-.3295.7955c-.21098.211-.49713.3295-.7955.3295s-.58452-.1185-.7955-.3295c-.21097-.211-.3295-.4971-.3295-.7955zm4.875 0c0-.1989.07902-.3897.21967-.5303.14065-.1407.33142-.2197.53033-.2197h12c.1989 0 .3897.079.5303.2197.1407.1406.2197.3314.2197.5303s-.079.3897-.2197.5303c-.1406.1407-.3314.2197-.5303.2197h-12c-.19891 0-.38968-.079-.53033-.2197-.14065-.1406-.21967-.3314-.21967-.5303z" fill="#f6c90c" fill-rule="evenodd"/></svg>