<svg fill="none" height="24" viewBox="0 0 24 24" width="24" xmlns="http://www.w3.org/2000/svg"><path d="m21.731 2.26893c-.4923-.49218-1.1599-.76869-1.856-.76869s-1.3637.27651-1.856.76869l-1.157 1.157 3.712 3.712 1.157-1.157c.4922-.49227.7687-1.15988.7687-1.856 0-.69611-.2765-1.36373-.7687-1.856zm-2.218 5.93-3.712-3.712-12.14999 12.14997c-.61715.6169-1.07082 1.3778-1.32 2.214l-.8 2.685c-.03862.1296-.0415.2672-.00834.3983.03317.131.10115.2507.19676.3463.0956.0956.21527.1636.34634.1968.13107.0331.26867.0303.39824-.0084l2.685-.8c.83623-.2491 1.59716-.7028 2.214-1.32l12.14999-12.14897z" fill="#f6c90c"/></svg>