<svg fill="none" height="24" viewBox="0 0 24 24" width="24" xmlns="http://www.w3.org/2000/svg"><path clip-rule="evenodd" d="m12.516 2.17007c-.1393-.13209-.324-.20571-.516-.20571s-.3767.07362-.516.20571c-2.12272 2.01588-4.94987 3.12133-7.87699 3.08-.15947-.00207-.31544.04674-.44528.13935-.12983.09261-.22677.2242-.27672.37565-.42203 1.28617-.63639 2.63137-.635 3.985 0 5.94203 4.064 10.93303 9.56299 12.34803.1227.0316.2513.0316.374 0 5.499-1.415 9.563-6.406 9.563-12.34803 0-1.39-.223-2.73-.635-3.985-.0498-.15164-.1466-.28344-.2765-.37624-.1298-.0928-.2859-.14176-.4455-.13976l-.143.001c-2.996 0-5.717-1.17-7.734-3.08zm3.094 8.01603c.06-.08.1034-.1711.1277-.26808.0243-.09697.0289-.19781.0137-.29659-.0153-.09879-.0501-.19353-.1025-.27866s-.1213-.15892-.2026-.21705c-.0814-.05812-.1735-.09941-.271-.12142s-.1984-.02431-.2968-.00677c-.0984.01755-.1923.05459-.2762.10895s-.1561.12494-.2123.20759l-3.236 4.53003-1.62399-1.624c-.14218-.1325-.33022-.2046-.52453-.2012-.1943.0034-.37968.0821-.51709.2196-.13742.1374-.21613.3227-.21956.5171-.00343.1943.0687.3823.20118.5245l2.24999 2.25c.077.0769.1698.1362.272.1736.1022.0375.2113.0522.3198.0433.1084-.0089.2137-.0414.3083-.0951.0947-.0537.1766-.1273.2399-.2158z" fill="#f6c90c" fill-rule="evenodd"/></svg>