<svg fill="none" height="24" viewBox="0 0 24 24" width="24" xmlns="http://www.w3.org/2000/svg"><path clip-rule="evenodd" d="m8.99995 4.5c.16296.00003.32148.05315.45157.1513s.22467.236.26943.3927l.81295 2.846c.1751.61292.5035 1.1711.9542 1.62183.4507.45072 1.0089.77917 1.6218.95417l2.846.813c.1566.0449.2944.1395.3924.2696.0981.13.1511.2885.1511.4514s-.053.3214-.1511.4514c-.098.1301-.2358.2247-.3924.2696l-2.846.813c-.6129.175-1.1711.5034-1.6218.9542-.4507.4507-.7791 1.0089-.9542 1.6218l-.81295 2.846c-.04486.1566-.13948.2943-.26956.3924-.13008.098-.28855.1511-.45144.1511-.1629 0-.32136-.0531-.45144-.1511-.13008-.0981-.2247-.2358-.26956-.3924l-.813-2.846c-.17505-.6129-.50345-1.1711-.95417-1.6218-.45073-.4508-1.00891-.7792-1.62183-.9542l-2.846-.813c-.1566-.0449-.29433-.1395-.39238-.2696-.09805-.13-.15108-.2885-.15108-.4514s.05303-.3214.15108-.4514c.09805-.1301.23578-.2247.39238-.2696l2.846-.813c.61292-.175 1.1711-.50345 1.62183-.95417.45072-.45073.77912-1.00891.95417-1.62183l.813-2.846c.04476-.1567.13934-.29455.26943-.3927s.2886-.15127.45157-.1513zm8.99995-3c.1674-.00009.3299.05576.4618.15869.1319.10292.2256.247.2662.40931l.258 1.036c.236.94.97 1.674 1.91 1.91l1.036.258c.1627.04028.3071.13386.4104.2658.1032.13194.1593.29466.1593.4622s-.0561.33026-.1593.4622c-.1033.13194-.2477.22552-.4104.2658l-1.036.258c-.94.236-1.674.97-1.91 1.91l-.258 1.036c-.0402.1626-.1338.3071-.2658.4103-.1319.1033-.2946.1594-.4622.1594-.1675 0-.3302-.0561-.4622-.1594-.1319-.1032-.2255-.2477-.2658-.4103l-.258-1.036c-.1153-.46157-.354-.8831-.6904-1.21952-.3365-.33643-.758-.57509-1.2196-.69048l-1.036-.258c-.1626-.04028-.307-.13386-.4103-.2658-.1032-.13194-.1593-.29466-.1593-.4622s.0561-.33026.1593-.4622c.1033-.13194.2477-.22552.4103-.2658l1.036-.258c.4616-.11539.8831-.35405 1.2196-.69048.3364-.33642.5751-.75795.6904-1.21952l.258-1.036c.0406-.16231.1344-.30639.2663-.40931.1319-.10293.2944-.15878.4617-.15869zm-1.5 13.5c.1576-.0001.3111.0494.4389.1415s.2234.2221.2731.3715l.394 1.183c.15.447.5.799.948.948l1.183.395c.149.05.2785.1455.3702.2731.0918.1276.1411.2808.1411.4379s-.0493.3103-.1411.4379c-.0917.1276-.2212.2231-.3702.2731l-1.183.395c-.447.15-.799.5-.948.948l-.395 1.183c-.05.149-.1455.2785-.2731.3702-.1275.0917-.2807.1411-.4379.1411-.1571 0-.3103-.0494-.4378-.1411-.1276-.0917-.2231-.2212-.2732-.3702l-.395-1.183c-.0736-.2207-.1976-.4213-.3621-.5858-.1646-.1645-.3651-.2885-.5859-.3622l-1.183-.395c-.1489-.05-.2784-.1455-.3702-.2731-.0917-.1276-.1411-.2808-.1411-.4379s.0494-.3103.1411-.4379c.0918-.1276.2213-.2231.3702-.2731l1.183-.395c.447-.15.799-.5.948-.948l.395-1.183c.0498-.1493.1452-.2791.2728-.3712s.2809-.1417.4382-.1418z" fill="#f6c90c" fill-rule="evenodd"/></svg>