<svg fill="none" height="24" viewBox="0 0 24 24" width="24" xmlns="http://www.w3.org/2000/svg"><g fill="#f6c90c"><path clip-rule="evenodd" d="m8.25 6.75c0-.99456.39509-1.94839 1.09835-2.65165.70325-.70326 1.65705-1.09835 2.65165-1.09835s1.9484.39509 2.6517 1.09835c.7032.70326 1.0983 1.65709 1.0983 2.65165s-.3951 1.94839-1.0983 2.65165c-.7033.70325-1.6571 1.09835-2.6517 1.09835s-1.9484-.3951-2.65165-1.09835c-.70326-.70326-1.09835-1.65709-1.09835-2.65165zm7.5 3c0-.79565.3161-1.55871.8787-2.12132s1.3257-.87868 2.1213-.87868 1.5587.31607 2.1213.87868.8787 1.32567.8787 2.12132c0 .7956-.3161 1.5587-.8787 2.1213s-1.3257.8787-2.1213.8787-1.5587-.3161-2.1213-.8787-.8787-1.3257-.8787-2.1213zm-13.5 0c0-.79565.31607-1.55871.87868-2.12132s1.32567-.87868 2.12132-.87868 1.55871.31607 2.12132.87868.87868 1.32567.87868 2.12132c0 .7956-.31607 1.5587-.87868 2.1213s-1.32567.8787-2.12132.8787-1.55871-.3161-2.12132-.8787-.87868-1.3257-.87868-2.1213zm4.06 5.367c.60995-.956 1.45108-1.7427 2.44562-2.2876.99454-.5448 2.11038-.83 3.24438-.8294.9498-.0009 1.8891.1989 2.7564.5862.8673.3872 1.643.9533 2.2763 1.6612.6334.7078 1.1101 1.5414 1.399 2.4462.2888.9049.3833 1.8605.2773 2.8044-.013.1173-.0534.2298-.118.3285-.0647.0987-.1517.1808-.254.2395-1.9284 1.1065-4.1137 1.6872-6.337 1.684-2.305 0-4.47-.612-6.337-1.684-.10231-.0587-.18932-.1408-.25396-.2395-.06463-.0987-.10508-.2112-.11804-.3285-.16795-1.5334.19146-3.0782 1.019-4.38z" fill-rule="evenodd"/><path d="m5.08208 14.2539c-.98624 1.5224-1.44575 3.3263-1.308 5.135-.60049-.091-1.19109-.2384-1.764-.44l-.115-.04c-.1026-.0364-.19245-.1018-.25865-.1882-.0662-.0865-.10592-.1902-.11435-.2988l-.01-.121c-.04039-.502.02076-1.0071.1798-1.4849.15905-.4779.41274-.9189.74592-1.2966.33319-.3777.73905-.6844 1.19336-.9018.45431-.2175.94777-.3411 1.45092-.3637zm15.14402 5.135c.1377-1.8087-.3218-3.6126-1.308-5.135.5031.0226.9966.1462 1.4509.3637.4543.2174.8602.5241 1.1934.9018.3331.3777.5868.8187.7459 1.2966.159.4778.2202.9829.1798 1.4849l-.01.121c-.0086.1084-.0484.2119-.1146.2982-.0662.0862-.156.1515-.2584.1878l-.115.04c-.567.2-1.156.349-1.764.441z"/></g></svg>