<svg fill="none" height="512" viewBox="0 0 2033 512" width="2033" xmlns="http://www.w3.org/2000/svg"><path d="m482 0h-452c-16.5685 0-30 13.4315-30 30v452c0 16.569 13.4315 30 30 30h452c16.569 0 30-13.431 30-30v-452c0-16.5685-13.431-30-30-30z" fill="#f6c90c"/><g fill="#313131"><path clip-rule="evenodd" d="m738.777 238.8c-5.326 20.716-10.984 41.295-16.975 61.738s-12.315 41.022-18.972 61.738h-46.332c-4.793-11.448-9.986-25.077-15.577-40.886-5.592-15.809-11.384-33.05-17.375-51.721s-12.115-38.433-18.373-59.285c-6.257-20.852-12.315-41.908-18.173-63.169h62.708c2.13 9.813 4.46 20.511 6.989 32.096 2.53 11.584 5.193 23.509 7.989 35.775s5.725 24.6 8.787 37.002 6.191 24.327 9.386 35.775c3.462-11.993 6.857-24.259 10.185-36.797 3.329-12.539 6.524-24.872 9.586-37.002s5.991-23.85 8.787-35.162 5.259-21.874 7.389-31.687h43.137c2.13 9.813 4.526 20.375 7.189 31.687s5.459 23.032 8.388 35.162 5.991 24.463 9.186 37.002c3.196 12.538 6.524 24.804 9.986 36.797 3.195-11.448 6.39-23.373 9.586-35.775 3.195-12.402 6.19-24.736 8.986-37.002s5.459-24.191 7.989-35.775c2.529-11.585 4.859-22.283 6.989-32.096h61.909c-5.858 21.261-11.916 42.317-18.173 63.169-6.258 20.852-12.382 40.614-18.373 59.285s-11.849 35.912-17.574 51.721-10.984 29.438-15.777 40.886h-46.332c-6.657-20.716-13.18-41.295-19.571-61.738s-12.249-41.022-17.574-61.738zm175.342 17.581c0-19.08 2.862-35.775 8.587-50.085 5.725-14.311 13.247-26.236 22.567-35.776s20.037-16.763 32.153-21.669c12.115-4.907 24.564-7.36 37.344-7.36 29.82 0 53.39 9.336 70.7 28.007 17.3 18.672 25.96 46.133 25.96 82.386 0 3.543-.13 7.427-.4 11.652s-.53 7.973-.8 11.244h-135.001c1.331 12.538 7.056 22.487 17.175 29.847 10.116 7.359 23.696 11.039 40.736 11.039 10.92 0 21.64-1.022 32.16-3.067 10.51-2.044 19.1-4.565 25.76-7.564l7.99 49.473c-3.2 1.635-7.46 3.271-12.78 4.906-5.33 1.635-11.25 3.066-17.78 4.293-6.52 1.227-13.51 2.249-20.97 3.066-7.45.818-14.91 1.227-22.36 1.227-18.91 0-35.352-2.862-49.332-8.586-13.979-5.724-25.562-13.561-34.749-23.51-9.186-9.949-15.976-21.737-20.37-35.366-4.393-13.629-6.59-28.348-6.59-44.157zm139.791-23.305c-.26-5.179-1.13-10.222-2.59-15.128-1.47-4.906-3.73-9.267-6.79-13.083s-6.93-6.951-11.59-9.404-10.45-3.68-17.37-3.68c-6.66 0-12.38 1.158-17.175 3.475-4.793 2.317-8.787 5.384-11.982 9.2-3.196 3.816-5.659 8.245-7.39 13.288-1.73 5.042-2.995 10.153-3.794 15.332zm230.06-31.891c-5.32-1.363-11.58-2.794-18.77-4.293s-14.91-2.249-23.16-2.249c-3.73 0-8.19.341-13.38 1.022-5.2.682-9.12 1.431-11.79 2.249v164.362h-59.51v-203.613c10.65-3.816 23.23-7.427 37.75-10.835 14.51-3.407 30.68-5.11 48.52-5.11 3.2 0 7.06.204 11.59.613 4.52.409 9.05.954 13.58 1.635 4.52.682 9.05 1.5 13.58 2.454 4.52.954 8.39 2.112 11.58 3.475zm176.55 51.925c0-39.251-14.12-58.876-42.34-58.876-6.13 0-12.18.818-18.18 2.453-5.99 1.636-10.85 3.68-14.57 6.133v110.802c2.92.545 6.65 1.022 11.18 1.431 4.53.408 9.45.613 14.78.613 16.24 0 28.49-5.724 36.74-17.172 8.26-11.448 12.39-26.576 12.39-45.384zm60.71 1.636c0 17.172-2.47 32.708-7.39 46.61-4.93 13.901-12.05 25.758-21.37 35.571-9.32 9.812-20.77 17.376-34.35 22.691-13.58 5.316-29.02 7.973-46.33 7.973-7.19 0-14.71-.341-22.57-1.022-7.85-.681-15.58-1.567-23.17-2.658-7.58-1.09-14.84-2.385-21.76-3.884-6.93-1.499-13.05-3.066-18.38-4.702v-262.5123l59.52-9.8127v69.122c6.65-2.999 13.58-5.316 20.77-6.951 7.18-1.636 14.91-2.453 23.16-2.453 14.91 0 28.09 2.657 39.54 7.973 11.45 5.315 21.04 12.879 28.76 22.691 7.72 9.813 13.58 21.602 17.57 35.367 4 13.765 6 29.097 6 45.997zm242.44-.409c0 16.899-2.4 32.368-7.19 46.405-4.79 14.038-11.72 26.031-20.77 35.98s-19.9 17.649-32.55 23.101c-12.65 5.451-26.83 8.177-42.54 8.177-15.44 0-29.49-2.726-42.14-8.177-12.65-5.452-23.5-13.152-32.55-23.101s-16.11-21.942-21.17-35.98c-5.06-14.037-7.59-29.506-7.59-46.405 0-16.9 2.6-32.3 7.79-46.202 5.19-13.901 12.38-25.758 21.57-35.57 9.19-9.813 20.1-17.445 32.75-22.897 12.65-5.451 26.43-8.177 41.34-8.177 15.18 0 29.09 2.726 41.74 8.177 12.65 5.452 23.5 13.084 32.55 22.897 9.06 9.812 16.11 21.669 21.17 35.57 5.06 13.902 7.59 29.302 7.59 46.202zm-60.71 0c0-18.808-3.66-33.595-10.99-44.362-7.32-10.766-17.77-16.15-31.35-16.15s-24.1 5.384-31.55 16.15c-7.46 10.767-11.19 25.554-11.19 44.362 0 18.807 3.73 33.731 11.19 44.77 7.45 11.039 17.97 16.559 31.55 16.559s24.03-5.52 31.35-16.559c7.33-11.039 10.99-25.963 10.99-44.77zm104.64-160.6826 59.52-9.8126v63.3732h71.49v50.699h-71.49v75.639c0 12.811 2.19 23.033 6.59 30.665 4.39 7.632 13.24 11.448 26.56 11.448 6.39 0 12.98-.613 19.77-1.84s12.98-2.93 18.57-5.111l8.39 47.428c-7.19 2.998-15.18 5.588-23.96 7.768-8.79 2.181-19.58 3.271-32.36 3.271-16.24 0-29.69-2.248-40.34-6.746-10.65-4.497-19.17-10.767-25.56-18.807-6.39-8.041-10.85-17.786-13.38-29.234s-3.8-24.123-3.8-38.024z" fill-rule="evenodd"/><path clip-rule="evenodd" d="m123.5 362-80.0985-134h44.25 44.2505l37.098 58.5z" fill-rule="evenodd"/><path clip-rule="evenodd" d="m390.5 362 78.5-134h-88.5l-36.5 58z" fill-rule="evenodd"/><path d="m295.967 368-39.467-68.092-39.467 68.092h-90.033l84.483-140h90.017l84.5 140z"/><path d="m87.3237 144-44.3237 78h426l-44.324-78z"/></g></svg>