<svg fill="none" height="233" viewBox="0 0 1625 233" width="1625" xmlns="http://www.w3.org/2000/svg" xmlns:xlink="http://www.w3.org/1999/xlink"><clipPath id="a"><path d="m0 0h1625v233h-1625z"/></clipPath><g clip-path="url(#a)"><g fill="#f6c90c"><path clip-rule="evenodd" d="m83.5 231-82.5-142h88.5l38 65z" fill-rule="evenodd"/><path clip-rule="evenodd" d="m344 231.5 81-142.5h-88.5l-38 64z" fill-rule="evenodd"/><path d="m252.967 233-39.467-68.092-39.467 68.092h-90.033l84.483-144h90.017l84.5 144z"/><path d="m44.3237 9-44.3237 78h426l-44.324-78z"/></g><path clip-rule="evenodd" d="m647.761 126.015c-4.308 16.755-8.884 33.4-13.73 49.935s-9.961 33.18-15.345 49.935h-37.475c-3.876-9.26-8.076-20.283-12.599-33.07-4.522-12.787-9.207-26.731-14.053-41.833-4.845-15.102-9.799-31.085-14.86-47.951-5.061-16.8653-9.961-33.896-14.699-51.0922h50.72c1.722 7.9367 3.607 16.5898 5.653 25.9596s4.2 19.015 6.461 28.9356c2.261 9.921 4.63 19.897 7.107 29.928s5.008 19.677 7.592 28.936c2.8-9.7 5.546-19.621 8.238-29.762 2.692-10.142 5.276-20.118 7.753-29.928 2.477-9.8111 4.846-19.291 7.107-28.4403 2.262-9.1493 4.254-17.6922 5.977-25.6289h34.89c1.723 7.9367 3.661 16.4796 5.815 25.6289 2.153 9.1493 4.415 18.6292 6.784 28.4403 2.369 9.81 4.846 19.786 7.43 29.928 2.585 10.141 5.277 20.062 8.077 29.762 2.584-9.259 5.168-18.905 7.753-28.936 2.584-10.031 5.007-20.007 7.268-29.928 2.262-9.9206 4.416-19.5658 6.462-28.9356s3.93-18.0229 5.653-25.9596h50.074c-4.739 17.1962-9.638 34.2269-14.699 51.0922-5.062 16.866-10.015 32.849-14.861 47.951s-9.584 29.046-14.214 41.833c-4.631 12.787-8.884 23.81-12.761 33.07h-37.474c-5.385-16.755-10.661-33.4-15.83-49.935s-9.907-33.18-14.214-49.935zm141.82 14.22c0-15.433 2.316-28.936 6.946-40.5106 4.631-11.5745 10.715-21.2197 18.253-28.936 7.538-7.7162 16.206-13.5585 26.006-17.5269 9.799-3.9683 19.867-5.9525 30.205-5.9525 24.122 0 43.182 7.5508 57.181 22.6527s20.998 37.3133 20.998 66.6353c0 2.866-.107 6.008-.323 9.425-.215 3.417-.431 6.448-.646 9.094h-109.192c1.077 10.141 5.707 18.188 13.891 24.141 8.184 5.952 19.168 8.929 32.952 8.929 8.83 0 17.498-.827 26.006-2.481 8.507-1.653 15.452-3.692 20.837-6.118l6.461 40.015c-2.585 1.323-6.031 2.645-10.338 3.968s-9.099 2.48-14.376 3.472-10.93 1.819-16.96 2.481c-6.031.661-12.061.992-18.091.992-15.292 0-28.591-2.315-39.898-6.945s-20.675-10.968-28.105-19.015c-7.431-8.047-12.923-17.582-16.476-28.605-3.554-11.023-5.331-22.928-5.331-35.715zm113.07-18.85c-.216-4.189-.916-8.267-2.1-12.236-1.185-3.968-3.015-7.496-5.492-10.5821-2.477-3.0865-5.6-5.6218-9.369-7.606s-8.453-2.9763-14.053-2.9763c-5.384 0-10.014.937-13.891 2.811-3.877 1.8739-7.107 4.3541-9.692 7.4406-2.584 3.0868-4.576 6.6688-5.976 10.7478-1.4 4.078-2.423 8.212-3.069 12.401zm186.079-25.7944c-4.31-1.1023-9.37-2.2597-15.18-3.4723-5.82-1.2125-12.06-1.8188-18.74-1.8188-3.02 0-6.62.2756-10.82.8268-4.2.5511-7.38 1.1574-9.53 1.8188v132.9399h-48.138v-164.6867c8.614-3.0866 18.788-6.0077 30.528-8.7635s24.82-4.1337 39.25-4.1337c2.59 0 5.71.1653 9.37.496s7.32.7717 10.98 1.3228c3.67.5512 7.33 1.2126 10.99 1.9842s6.78 1.7086 9.37 2.8109zm142.79 41.9984c0-31.747-11.41-47.6202-34.24-47.6202-4.96 0-9.86.6614-14.7 1.9842-4.85 1.3228-8.78 2.9763-11.79 4.9604v89.6186c2.36.441 5.38.827 9.04 1.158 3.66.33 7.65.496 11.95.496 13.14 0 23.05-4.63 29.73-13.89 6.67-9.259 10.01-21.495 10.01-36.707zm49.1 1.323c0 13.889-1.99 26.456-5.97 37.699-3.99 11.244-9.75 20.834-17.29 28.771-7.53 7.937-16.79 14.054-27.78 18.353-10.98 4.299-23.47 6.449-37.47 6.449-5.82 0-11.9-.276-18.26-.827-6.35-.551-12.59-1.267-18.73-2.149s-12.01-1.929-17.61-3.142c-5.6-1.212-10.55-2.48-14.86-3.803v-212.32629l48.14-7.93671v55.9071c5.38-2.4251 10.98-4.299 16.79-5.6218 5.82-1.3228 12.07-1.9842 18.74-1.9842 12.06 0 22.72 2.1495 31.98 6.4486 9.26 4.299 17.02 10.4169 23.26 18.3536 6.25 7.9368 10.99 17.4718 14.22 28.6057 3.23 11.133 4.84 23.534 4.84 37.203zm196.1-.331c0 13.669-1.94 26.18-5.82 37.534-3.87 11.354-9.47 21.054-16.8 29.101-7.32 8.047-16.09 14.275-26.32 18.685-10.23 4.409-21.7 6.614-34.41 6.614-12.49 0-23.85-2.205-34.08-6.614-10.23-4.41-19.01-10.638-26.33-18.685s-13.03-17.747-17.12-29.101c-4.1-11.354-6.14-23.865-6.14-37.534s2.1-26.125 6.3-37.369c4.2-11.2432 10.01-20.8333 17.44-28.7701 7.43-7.9367 16.26-14.1097 26.49-18.519s21.38-6.6139 33.44-6.6139c12.28 0 23.53 2.2046 33.76 6.6139s19.01 10.5823 26.33 18.519c7.32 7.9368 13.03 17.5269 17.12 28.7701 4.09 11.244 6.14 23.7 6.14 37.369zm-49.11 0c0-15.212-2.96-27.172-8.88-35.88-5.92-8.7088-14.38-13.0629-25.36-13.0629s-19.49 4.3541-25.52 13.0629c-6.03 8.708-9.05 20.668-9.05 35.88s3.02 27.283 9.05 36.211c6.03 8.929 14.54 13.394 25.52 13.394s19.44-4.465 25.36-13.394c5.92-8.928 8.88-20.999 8.88-36.211zm84.64-129.96345 48.14-7.936703v51.257953h57.83v41.0063h-57.83v61.1789c0 10.362 1.78 18.629 5.33 24.802s10.71 9.26 21.48 9.26c5.17 0 10.5-.496 15.99-1.489 5.5-.992 10.5-2.37 15.03-4.133l6.78 38.361c-5.82 2.425-12.28 4.519-19.38 6.283-7.11 1.763-15.83 2.645-26.17 2.645-13.14 0-24.01-1.819-32.63-5.456-8.61-3.638-15.51-8.708-20.67-15.212-5.17-6.504-8.78-14.385-10.83-23.645-2.04-9.26-3.07-19.511-3.07-30.755z" fill="#313131" fill-rule="evenodd"/></g></svg>