<svg fill="none" height="512" viewBox="0 0 1867 512" width="1867" xmlns="http://www.w3.org/2000/svg"><path d="m482 0h-452c-16.5685 0-30 13.4315-30 30v452c0 16.569 13.4315 30 30 30h452c16.569 0 30-13.431 30-30v-452c0-16.5685-13.431-30-30-30z" fill="#313131"/><g fill="#f6c90c"><path clip-rule="evenodd" d="m126.5 366-82.5-142h88.5l38 65z" fill-rule="evenodd"/><path clip-rule="evenodd" d="m387 366.5 81-142.5h-88.5l-38 64z" fill-rule="evenodd"/><path d="m295.967 368-39.467-68.092-39.467 68.092h-90.033l84.483-144h90.017l84.5 144z"/><path d="m87.3237 144-44.3237 78h426l-44.324-78z"/></g><path clip-rule="evenodd" d="m723.041 243.6c-4.773 18.022-9.845 35.925-15.215 53.71s-11.038 35.688-17.005 53.71h-41.528c-4.297-9.959-8.951-21.816-13.963-35.569-5.012-13.754-10.203-28.752-15.573-44.996-5.37-16.243-10.859-33.435-16.468-51.576-5.609-18.14-11.038-36.459-16.289-54.955h56.206c1.91 8.537 3.998 17.844 6.265 27.922 2.268 10.078 4.655 20.453 7.161 31.124s5.131 21.401 7.876 32.19c2.744 10.79 5.549 21.164 8.413 31.124 3.102-10.434 6.145-21.105 9.129-32.013 2.983-10.908 5.847-21.638 8.592-32.191 2.745-10.552 5.37-20.749 7.876-30.589 2.506-9.841 4.714-19.03 6.623-27.567h38.664c1.91 8.537 4.058 17.726 6.444 27.567 2.387 9.84 4.893 20.037 7.518 30.589 2.626 10.553 5.37 21.283 8.234 32.191 2.865 10.908 5.848 21.579 8.951 32.013 2.864-9.96 5.728-20.334 8.592-31.124 2.864-10.789 5.549-21.519 8.055-32.19s4.892-21.046 7.16-31.124c2.267-10.078 4.355-19.385 6.265-27.922h55.49c-5.25 18.496-10.68 36.815-16.289 54.955-5.609 18.141-11.098 35.333-16.468 51.576-5.37 16.244-10.621 31.242-15.752 44.996-5.132 13.753-9.845 25.61-14.141 35.569h-41.529c-5.966-18.022-11.814-35.925-17.542-53.71s-10.978-35.688-15.752-53.71zm157.163 15.295c0-16.599 2.566-31.123 7.697-43.573 5.132-12.449 11.874-22.824 20.228-31.123 8.353-8.3 17.959-14.584 28.819-18.852 10.859-4.269 22.017-6.403 33.473-6.403 26.731 0 47.849 8.122 63.369 24.365 15.51 16.244 23.27 40.135 23.27 71.673 0 3.083-.12 6.462-.36 10.138-.24 3.675-.48 6.936-.72 9.781h-121.001c1.193 10.908 6.325 19.564 15.394 25.966 9.069 6.403 21.241 9.604 36.516 9.604 9.786 0 19.391-.889 28.821-2.668 9.43-1.778 17.12-3.972 23.09-6.58l7.16 43.039c-2.86 1.423-6.68 2.846-11.46 4.268-4.77 1.423-10.08 2.668-15.93 3.735-5.84 1.067-12.11 1.957-18.793 2.668-6.682.711-13.365 1.067-20.048 1.067-16.945 0-31.683-2.49-44.213-7.47-12.53-4.979-22.912-11.797-31.146-20.452-8.235-8.655-14.321-18.911-18.259-30.768-3.938-11.856-5.907-24.661-5.907-38.415zm125.306-20.275c-.24-4.505-1.02-8.892-2.33-13.161-1.31-4.268-3.343-8.062-6.088-11.382-2.744-3.32-6.205-6.047-10.382-8.181-4.176-2.134-9.367-3.201-15.573-3.201-5.967 0-11.098 1.008-15.394 3.023-4.296 2.016-7.876 4.684-10.74 8.004-2.864 3.319-5.072 7.173-6.623 11.56-1.552 4.387-2.685 8.833-3.401 13.338zm206.21-27.744c-4.78-1.186-10.39-2.431-16.83-3.735-6.45-1.304-13.37-1.956-20.77-1.956-3.34 0-7.33.296-11.99.889-4.65.593-8.17 1.245-10.56 1.956v142.99h-53.34v-177.136c9.54-3.32 20.82-6.462 33.83-9.426 13.01-2.965 27.51-4.447 43.5-4.447 2.86 0 6.32.178 10.38.534s8.11.83 12.17 1.423 8.12 1.304 12.17 2.134c4.06.83 7.52 1.838 10.39 3.023zm158.23 45.173c0-34.147-12.65-51.22-37.95-51.22-5.49 0-10.91.712-16.28 2.134-5.38 1.423-9.73 3.202-13.07 5.336v96.393c2.62.475 5.96.89 10.02 1.245 4.06.356 8.47.534 13.25.534 14.56 0 25.54-4.98 32.93-14.939 7.4-9.96 11.1-23.121 11.1-39.483zm54.42 1.423c0 14.939-2.21 28.456-6.62 40.55-4.42 12.093-10.8 22.408-19.16 30.945-8.35 8.537-18.61 15.117-30.79 19.741-12.17 4.624-26.01 6.936-41.52 6.936-6.45 0-13.19-.296-20.23-.889s-13.96-1.363-20.77-2.312c-6.8-.948-13.3-2.075-19.51-3.379-6.2-1.304-11.69-2.668-16.46-4.091v-261.4363l53.34-8.5367v93.192c5.96-2.608 12.17-4.624 18.61-6.046 6.45-1.423 13.37-2.135 20.77-2.135 13.36 0 25.18 2.312 35.44 6.936 10.26 4.625 18.86 11.205 25.78 19.742 6.92 8.536 12.17 18.792 15.75 30.767 3.58 11.976 5.37 25.314 5.37 40.016zm217.31-.356c0 14.703-2.15 28.16-6.45 40.372-4.29 12.212-10.5 22.646-18.61 31.301-8.12 8.656-17.84 15.354-29.18 20.097s-24.05 7.114-38.13 7.114c-13.84 0-26.43-2.371-37.77-7.114-11.33-4.743-21.06-11.441-29.17-20.097-8.12-8.655-14.44-19.089-18.98-31.301-4.53-12.212-6.8-25.669-6.8-40.372 0-14.702 2.33-28.099 6.98-40.193s11.1-22.409 19.33-30.946c8.24-8.537 18.02-15.176 29.36-19.919 11.34-4.742 23.69-7.114 37.05-7.114 13.61 0 26.08 2.372 37.41 7.114 11.34 4.743 21.07 11.382 29.18 19.919 8.12 8.537 14.44 18.852 18.97 30.946 4.54 12.094 6.81 25.491 6.81 40.193zm-54.42 0c0-16.362-3.28-29.226-9.84-38.593-6.57-9.366-15.94-14.05-28.11-14.05s-21.6 4.684-28.28 14.05c-6.68 9.367-10.02 22.231-10.02 38.593 0 16.363 3.34 29.345 10.02 38.949s16.11 14.406 28.28 14.406 21.54-4.802 28.11-14.406c6.56-9.604 9.84-22.586 9.84-38.949zm93.8-139.788 53.34-8.537v55.133h64.08v44.106h-64.08v65.804c0 11.145 1.97 20.038 5.91 26.677 3.93 6.64 11.87 9.96 23.8 9.96 5.73 0 11.64-.534 17.72-1.601 6.09-1.067 11.64-2.549 16.65-4.446l7.52 41.261c-6.44 2.608-13.6 4.861-21.48 6.758s-17.54 2.846-29 2.846c-14.56 0-26.61-1.957-36.16-5.869-9.54-3.913-17.18-9.367-22.91-16.362-5.73-6.996-9.72-15.473-11.99-25.433-2.27-9.959-3.4-20.986-3.4-33.079z" fill="#313131" fill-rule="evenodd"/></svg>